REM DIRINDEX 1\2,1\3,1\4,1\5,1\6
REM DIRNAME folder01,folder02,folder03,folder04,folder05,folder06
TITLE ""
FILE "CD1-48.mp3" MP3
  TRACK 01 AUDIO
    TITLE "6:cjc091_0880"
    INDEX 01 00:00:00
  TRACK 02 AUDIO
    TITLE "0:"
    INDEX 01 00:01:30
  TRACK 03 AUDIO
    TITLE "6:cjc091_0881"
    INDEX 01 00:01:56
  TRACK 04 AUDIO
    TITLE "0:"
    INDEX 01 00:03:53
  TRACK 05 AUDIO
    TITLE "2:cjc091_0882"
    INDEX 01 00:04:74
  TRACK 06 AUDIO
    TITLE "0:"
    INDEX 01 00:06:53
  TRACK 07 AUDIO
    TITLE "3:cjc091_0883"
    INDEX 01 00:06:71
  TRACK 08 AUDIO
    TITLE "0:"
    INDEX 01 00:08:56
  TRACK 09 AUDIO
    TITLE "4:cjc091_0884"
    INDEX 01 00:08:72
  TRACK 10 AUDIO
    TITLE "0:"
    INDEX 01 00:11:56
  TRACK 11 AUDIO
    TITLE "2:cjc091_0885"
    INDEX 01 00:12:63
  TRACK 12 AUDIO
    TITLE "0:"
    INDEX 01 00:14:07
  TRACK 13 AUDIO
    TITLE "3:cjc091_0886"
    INDEX 01 00:14:19
  TRACK 14 AUDIO
    TITLE "0:"
    INDEX 01 00:15:50
  TRACK 15 AUDIO
    TITLE "4:cjc091_0887"
    INDEX 01 00:15:66
  TRACK 16 AUDIO
    TITLE "0:"
    INDEX 01 00:18:46
  TRACK 17 AUDIO
    TITLE "2:cjc091_0888"
    INDEX 01 00:19:58
  TRACK 18 AUDIO
    TITLE "0:"
    INDEX 01 00:21:17
  TRACK 19 AUDIO
    TITLE "3:cjc091_0889"
    INDEX 01 00:21:25
  TRACK 20 AUDIO
    TITLE "0:"
    INDEX 01 00:22:74
  TRACK 21 AUDIO
    TITLE "4:cjc091_0890"
    INDEX 01 00:23:26
  TRACK 22 AUDIO
    TITLE "0:"
    INDEX 01 00:31:26
  TRACK 23 AUDIO
    TITLE "2:cjc091_0891"
    INDEX 01 00:32:41
  TRACK 24 AUDIO
    TITLE "0:"
    INDEX 01 00:33:69
  TRACK 25 AUDIO
    TITLE "3:cjc091_0892"
    INDEX 01 00:34:00
  TRACK 26 AUDIO
    TITLE "0:"
    INDEX 01 00:35:29
  TRACK 27 AUDIO
    TITLE "4:cjc091_0893"
    INDEX 01 00:35:49
  TRACK 28 AUDIO
    TITLE "0:"
    INDEX 01 00:39:35
  TRACK 29 AUDIO
    TITLE "2:cjc091_0894"
    INDEX 01 00:40:40
  TRACK 30 AUDIO
    TITLE "0:"
    INDEX 01 00:42:08
  TRACK 31 AUDIO
    TITLE "3:cjc091_0895"
    INDEX 01 00:42:29
  TRACK 32 AUDIO
    TITLE "0:"
    INDEX 01 00:44:34
  TRACK 33 AUDIO
    TITLE "4:cjc091_0896"
    INDEX 01 00:44:52
  TRACK 34 AUDIO
    TITLE "0:"
    INDEX 01 00:50:35
  TRACK 35 AUDIO
    TITLE "2:cjc091_0897"
    INDEX 01 00:51:38
  TRACK 36 AUDIO
    TITLE "0:"
    INDEX 01 00:52:73
  TRACK 37 AUDIO
    TITLE "3:cjc091_0898"
    INDEX 01 00:53:02
  TRACK 38 AUDIO
    TITLE "0:"
    INDEX 01 00:54:11
  TRACK 39 AUDIO
    TITLE "4:cjc091_0899"
    INDEX 01 00:54:30
  TRACK 40 AUDIO
    TITLE "0:"
    INDEX 01 00:56:59
  TRACK 41 AUDIO
    TITLE "2:cjc091_0900"
    INDEX 01 00:58:01
  TRACK 42 AUDIO
    TITLE "0:"
    INDEX 01 00:59:14
  TRACK 43 AUDIO
    TITLE "3:cjc091_0901"
    INDEX 01 00:59:28
  TRACK 44 AUDIO
    TITLE "0:"
    INDEX 01 01:00:70
  TRACK 45 AUDIO
    TITLE "4:cjc091_0902"
    INDEX 01 01:01:13
  TRACK 46 AUDIO
    TITLE "0:"
    INDEX 01 01:06:06
  TRACK 47 AUDIO
    TITLE "2:cjc091_0903"
    INDEX 01 01:07:15
  TRACK 48 AUDIO
    TITLE "0:"
    INDEX 01 01:08:56
  TRACK 49 AUDIO
    TITLE "3:cjc091_0904"
    INDEX 01 01:08:66
  TRACK 50 AUDIO
    TITLE "0:"
    INDEX 01 01:10:31
  TRACK 51 AUDIO
    TITLE "4:cjc091_0905"
    INDEX 01 01:10:53
  TRACK 52 AUDIO
    TITLE "0:"
    INDEX 01 01:13:20
  TRACK 53 AUDIO
    TITLE "2:cjc091_0906"
    INDEX 01 01:14:37
  TRACK 54 AUDIO
    TITLE "0:"
    INDEX 01 01:16:05
  TRACK 55 AUDIO
    TITLE "3:cjc091_0907"
    INDEX 01 01:16:20
  TRACK 56 AUDIO
    TITLE "0:"
    INDEX 01 01:17:55
  TRACK 57 AUDIO
    TITLE "4:cjc091_0908"
    INDEX 01 01:18:04
  TRACK 58 AUDIO
    TITLE "0:"
    INDEX 01 01:21:70
  TRACK 59 AUDIO
    TITLE "2:cjc091_0909"
    INDEX 01 01:23:16
  TRACK 60 AUDIO
    TITLE "0:"
    INDEX 01 01:24:51
  TRACK 61 AUDIO
    TITLE "3:cjc091_0910"
    INDEX 01 01:25:02
  TRACK 62 AUDIO
    TITLE "0:"
    INDEX 01 01:26:58
  TRACK 63 AUDIO
    TITLE "4:cjc091_0911"
    INDEX 01 01:27:06
  TRACK 64 AUDIO
    TITLE "0:"
    INDEX 01 01:31:61
  TRACK 65 AUDIO
    TITLE "2:cjc091_0912"
    INDEX 01 01:32:70
  TRACK 66 AUDIO
    TITLE "0:"
    INDEX 01 01:34:32
  TRACK 67 AUDIO
    TITLE "3:cjc091_0913"
    INDEX 01 01:34:40
  TRACK 68 AUDIO
    TITLE "0:"
    INDEX 01 01:36:21
  TRACK 69 AUDIO
    TITLE "4:cjc091_0914"
    INDEX 01 01:36:41
  TRACK 70 AUDIO
    TITLE "0:"
    INDEX 01 01:40:11
  TRACK 71 AUDIO
    TITLE "2:cjc091_0915"
    INDEX 01 01:41:16
  TRACK 72 AUDIO
    TITLE "0:"
    INDEX 01 01:42:37
  TRACK 73 AUDIO
    TITLE "3:cjc091_0916"
    INDEX 01 01:42:59
  TRACK 74 AUDIO
    TITLE "0:"
    INDEX 01 01:45:44
  TRACK 75 AUDIO
    TITLE "4:cjc091_0917"
    INDEX 01 01:45:61
  TRACK 76 AUDIO
    TITLE "0:"
    INDEX 01 01:49:22
  TRACK 77 AUDIO
    TITLE "2:cjc091_0918"
    INDEX 01 01:50:33
  TRACK 78 AUDIO
    TITLE "0:"
    INDEX 01 01:51:48
  TRACK 79 AUDIO
    TITLE "3:cjc091_0919"
    INDEX 01 01:51:58
  TRACK 80 AUDIO
    TITLE "0:"
    INDEX 01 01:53:59
  TRACK 81 AUDIO
    TITLE "4:cjc091_0920"
    INDEX 01 01:54:05
  TRACK 82 AUDIO
    TITLE "0:"
    INDEX 01 01:57:31
  TRACK 83 AUDIO
    TITLE "2:cjc091_0921"
    INDEX 01 01:58:48
  TRACK 84 AUDIO
    TITLE "0:"
    INDEX 01 01:59:63
  TRACK 85 AUDIO
    TITLE "3:cjc091_0922"
    INDEX 01 01:59:69
  TRACK 86 AUDIO
    TITLE "0:"
    INDEX 01 02:01:23
  TRACK 87 AUDIO
    TITLE "4:cjc091_0923"
    INDEX 01 02:01:45
  TRACK 88 AUDIO
    TITLE "0:"
    INDEX 01 02:06:57
  TRACK 89 AUDIO
    TITLE "2:cjc091_0924"
    INDEX 01 02:08:00
  TRACK 90 AUDIO
    TITLE "0:"
    INDEX 01 02:09:34
  TRACK 91 AUDIO
    TITLE "3:cjc091_0925"
    INDEX 01 02:09:42
  TRACK 92 AUDIO
    TITLE "0:"
    INDEX 01 02:11:14
  TRACK 93 AUDIO
    TITLE "4:cjc091_0926"
    INDEX 01 02:11:37
  TRACK 94 AUDIO
    TITLE "0:"
    INDEX 01 02:14:49
